# xmcd
#
# Track frame offsets: 
#        150
#        11589
#        28226
#        47351
#        60842
#        83980
#        102813
#        119426
#        134331
#        155245
#        166085
#        180943
#        199882
#        219105
#        236294
#        252612
#        270109
#        286572
#        305593
#        320034
#
# Disc length: 4533 seconds
#
# Revision: 0
# Processed by: cddbd v1.5.2PL0 Copyright (c) Steve Scherf et al.
# Submitted via: ExactAudioCopy v1.0b1
#
DISCID=0511b314
DTITLE=Billy Ray Cyrus - The Definitive Collection CD 2
DYEAR=2014
DGENRE=Country
TTITLE0=Roll Me Over
TTITLE1=Trail Of Tears
TTITLE2=Three Little Words
TTITLE3=Crazy Mama
TTITLE4=Call Me Daddy
TTITLE5=Harper Valley P.T.A
TTITLE6=Sing Me Back Home
TTITLE7=Truth Is I Lied
TTITLE8=Should I Stay
TTITLE9=Kentucky
TTITLE10=Busy Man
TTITLE11=Time For Letting Go
TTITLE12=How's My World Treating You
TTITLE13=Give My Heart To You
TTITLE14=Deja Blue
TTITLE15=I Ain't Even Left
TTITLE16=One Last Thrill
TTITLE17=Bluegrass State Of Mind
TTITLE18=Cover To Cover
TTITLE19=It's All The Same To Me
EXTD=
EXTT0=
EXTT1=
EXTT2=
EXTT3=
EXTT4=
EXTT5=
EXTT6=
EXTT7=
EXTT8=
EXTT9=
EXTT10=
EXTT11=
EXTT12=
EXTT13=
EXTT14=
EXTT15=
EXTT16=
EXTT17=
EXTT18=
EXTT19=
PLAYORDER=
